<svg height="512" viewBox="0 0 512 512" width="512" xmlns="http://www.w3.org/2000/svg"><g id="Fortune_Cookies" data-name="Fortune Cookies"><g id="Filled"><path d="m133.816 85.255-45.255 45.255-39.6-39.6a24 24 0 0 0 -33.941 0 24 24 0 0 0 0 33.941l175.364 175.364 79.2-79.2z" fill="#fbc02d"/><path d="m15.022 90.912 73.539-73.54a32 32 0 0 1 45.255 0l33.941 33.942-79.2 79.2-39.6-39.6a24 24 0 0 0 -33.935-.002z" fill="#fdd835"/><path d="m380.65 118.936c169.966 73.529 141.192 233.244 51.729 314.164-68.67 62.114-164.4 81.7-240.252 55.729-18.747-6.418-26.759-28.614-17.022-45.873l28.189-49.956-117.057 17.348a31.986 31.986 0 0 1 -36.565-34.648c4.956-52.353 23.967-144.043 94.5-203.288 68.928-57.892 176.85-79.271 236.478-53.476z" fill="#d8c6c5"/><path d="m183.992 256a206.986 206.986 0 0 1 -91.624-21.325c-29.138 50.014-39.275 104.888-42.696 141.025a31.986 31.986 0 0 0 36.565 34.648l108.074-16.02 128.111-191.128a207.182 207.182 0 0 1 -138.43 52.8z" fill="#c9acab"/><path d="m497.279 329.205c-43.225 80.195-127.799 134.795-225.287 134.795a254.768 254.768 0 0 1 -97.576-19.421c-8.4 17.007-.466 38.03 17.711 44.253 75.857 25.971 171.582 6.384 240.252-55.729 30.549-27.634 54-64.459 64.9-103.898z" fill="#c9acab"/><g fill="#fcfafa"><circle cx="415.992" cy="256" r="32"/><circle cx="423.992" cy="328" r="16"/></g></g><g id="Outline"><path d="m504.85 232.78a162.806 162.806 0 0 0 -22.69-46.13 193.252 193.252 0 0 0 -39.881-41.19c-16.679-12.91-36.349-24.31-58.449-33.87-17.181-7.41-37.9-11.27-61.62-11.45l-.061-.01a8 8 0 0 0 -5.689 13.62 7.924 7.924 0 0 0 5.64 2.38c21.259.15 40.41 3.66 55.37 10.15 40.65 17.59 71.469 41 91.6 69.58a145.638 145.638 0 0 1 26.921 85.35c.07 51.54-26.36 107.48-68.98 145.96-45.531 41.2-105.85 64.84-165.52 64.84h-.08a205.346 205.346 0 0 1 -66.69-10.75 23.05 23.05 0 0 1 -11.571-8.79 24.427 24.427 0 0 1 -4.21-13.7 23.984 23.984 0 0 1 3.13-11.88l28.069-49.743.011-.017 53.7-89.06a8 8 0 1 0 -13.7-8.27l-51.763 85.831-113.327 16.799a24.39 24.39 0 0 1 -3.61.27 24 24 0 0 1 -23.93-23.91c0-.79.04-1.57.11-2.31l.01-.03c2.24-23.8 7.91-59.93 22.16-96.94 16.059-41.75 39.46-75.72 69.519-100.97a250.056 250.056 0 0 1 43.45-29.059 7.908 7.908 0 0 0 2.491-1.3 293.413 293.413 0 0 1 65.41-24.481 8 8 0 0 0 -1.88-15.77 8.091 8.091 0 0 0 -1.9.23 310.65 310.65 0 0 0 -61.98 22.28c-1.032.5-2.056 1.011-3.079 1.522l-46.708-46.7 33.947-33.949-39.6-39.6a40.046 40.046 0 0 0 -56.57 0l-72.923 72.929c-.2.193-.409.38-.607.578l-.08.09a32.474 32.474 0 0 0 -6.931 10.53 31.839 31.839 0 0 0 .011 24.13 32.466 32.466 0 0 0 6.96 10.52l37.239 37.24a8 8 0 0 0 11.321-11.31l-37.15-37.15a16 16 0 0 1 -4.75-11.35 16.253 16.253 0 0 1 4.678-11.362l.011.01.31-.31a15.97 15.97 0 0 1 22.3.282l45.22 45.21.04.04 45.28-45.2 43.26 43.269a261.321 261.321 0 0 0 -38.061 26.431c-32.159 27.02-57.119 63.18-74.17 107.48a364.608 364.608 0 0 0 -16.08 54.75 414.641 414.641 0 0 0 -7.069 46.42c-.12 1.26-.19 2.55-.19 3.85a39.963 39.963 0 0 0 39.931 39.91 41.124 41.124 0 0 0 5.96-.44l100.88-14.95-20.15 35.72a40.246 40.246 0 0 0 1.8 42.47 38.941 38.941 0 0 0 19.59 14.9 221.558 221.558 0 0 0 71.9 11.61 253.3 253.3 0 0 0 46.37-4.37 264.824 264.824 0 0 0 45.91-13.03 268.738 268.738 0 0 0 84.03-51.58 235.662 235.662 0 0 0 53.68-71.66 213.45 213.45 0 0 0 15.16-42.09 188.359 188.359 0 0 0 5.41-44.07 164.852 164.852 0 0 0 -7.14-48.43zm-376.674-153.165-39.616 39.555-33.951-33.95a31.738 31.738 0 0 0 -14.32-8.262l53.929-53.929a24.028 24.028 0 0 1 33.94 0l28.285 28.284-28.285 28.287z"/><path d="m290.22 118.1a8.411 8.411 0 0 0 1.009-.06 8 8 0 0 0 -.989-15.94 8.7 8.7 0 0 0 -1.011.06 8 8 0 0 0 .991 15.94z"/><path d="m265.76 278.46a8 8 0 0 0 15.53-3.85 8 8 0 1 0 -15.53 3.85z"/><path d="m285.92 255.98a7.994 7.994 0 0 0 10.979-2.72l33.25-55.13a8.013 8.013 0 0 0 -2.729-10.98 8 8 0 0 0 -10.981 2.72l-33.239 55.13a7.984 7.984 0 0 0 2.72 10.98z"/><path d="m80.51 190.36a8 8 0 0 0 0-11.31 8 8 0 1 0 0 11.31z"/></g></g></svg>