<?xml version="1.0" encoding="iso-8859-1"?>
<!-- Generator: Adobe Illustrator 19.0.0, SVG Export Plug-In . SVG Version: 6.00 Build 0)  -->
<svg version="1.1" id="Capa_1" xmlns="http://www.w3.org/2000/svg" xmlns:xlink="http://www.w3.org/1999/xlink" x="0px" y="0px"
	 viewBox="0 0 512 512" style="enable-background:new 0 0 512 512;" xml:space="preserve">
<path style="fill:#9A9B9D;" d="M265.571,7.5h-19.142c-7.909,0-14.321,6.412-14.321,14.321v37.07h47.785v-37.07
	C279.893,13.912,273.48,7.5,265.571,7.5z"/>
<path style="fill:#B3B5B7;" d="M358.798,37.664H153.201c-11.937,0-21.614,9.677-21.614,21.614v14.404l124.412,20.195l124.412-20.195
	V59.278C380.413,47.341,370.736,37.664,358.798,37.664z"/>
<path style="fill:#9A9B9D;" d="M171.587,73.682V59.278c0-11.937,9.677-21.614,21.614-21.614h-40
	c-11.937,0-21.614,9.677-21.614,21.614v14.404l124.412,20.195l20-3.247L171.587,73.682z"/>
<path style="fill:#E3E6E8;" d="M380.413,73.682H131.587c-10.551,0-19.104,8.553-19.104,19.104v21.285l143.516,25.334l143.516-25.334
	V92.786C399.516,82.235,390.963,73.682,380.413,73.682z"/>
<path style="fill:#B3B5B7;" d="M152.483,114.071V92.786c0-10.551,8.553-19.104,19.104-19.104h-40
	c-10.551,0-19.104,8.553-19.104,19.104v21.285l143.516,25.334l20-3.53L152.483,114.071z"/>
<path style="fill:#96D7E8;" d="M399.517,114.071L399.517,114.071H112.484l0,0c-29.251,22.646-46.373,57.555-46.373,94.547V451.06
	c0,29.514,23.926,53.44,53.44,53.44h272.897c29.514,0,53.44-23.926,53.44-53.44V208.619
	C445.889,171.626,428.767,136.717,399.517,114.071z"/>
<path style="fill:#68C9E0;" d="M106.11,451.06V208.619c0-36.992,17.122-71.902,46.373-94.547l0,0h-40l0,0
	c-29.251,22.646-46.373,57.555-46.373,94.547V451.06c0,29.514,23.926,53.44,53.44,53.44h40
	C130.036,504.5,106.11,480.574,106.11,451.06z"/>
<path style="fill:#CE9964;" d="M389.269,279.727c-2.178-2.931-4.01-6.103-5.459-9.455c-5.927-13.71-17.975-23.819-32.506-27.276
	c-3.552-0.845-6.995-2.098-10.259-3.734c-13.353-6.692-29.081-6.692-42.434,0c-3.264,1.636-6.707,2.889-10.259,3.734
	c-14.531,3.456-26.579,13.566-32.506,27.276c-1.449,3.351-3.281,6.524-5.459,9.455c-8.909,11.988-11.641,27.477-7.369,41.789
	c1.044,3.499,1.68,7.107,1.896,10.752c0.881,14.91,8.745,28.531,21.217,36.749l0,0c3.049,2.009,5.855,4.364,8.363,7.018
	c10.259,10.856,25.038,16.235,39.875,14.513l0,0c3.627-0.421,7.29-0.421,10.917,0l0,0c14.837,1.722,29.616-3.657,39.875-14.513
	c2.508-2.654,5.314-5.009,8.363-7.018l0,0c12.472-8.218,20.336-21.838,21.217-36.749l0,0c0.215-3.645,0.851-7.253,1.896-10.752
	C400.91,307.204,398.178,291.715,389.269,279.727z"/>
<path style="fill:#DDA46C;" d="M122.731,279.727c2.178-2.931,4.01-6.103,5.459-9.455c5.927-13.71,17.975-23.819,32.506-27.276
	c3.552-0.845,6.995-2.098,10.259-3.734c13.353-6.692,29.081-6.692,42.434,0c3.264,1.636,6.707,2.889,10.259,3.734
	c14.531,3.456,26.579,13.566,32.506,27.276c1.449,3.351,3.281,6.524,5.459,9.455c8.909,11.988,11.641,27.477,7.369,41.789
	c-1.044,3.499-1.681,7.107-1.896,10.752c-0.881,14.91-8.745,28.531-21.217,36.749l0,0c-3.049,2.009-5.855,4.364-8.363,7.018
	c-10.259,10.856-25.038,16.235-39.875,14.513l0,0c-3.627-0.421-7.29-0.421-10.917,0l0,0c-14.837,1.722-29.616-3.657-39.875-14.513
	c-2.508-2.654-5.314-5.009-8.363-7.018l0,0c-12.472-8.218-20.336-21.838-21.217-36.749l0,0c-0.215-3.645-0.851-7.253-1.896-10.752
	C111.09,307.204,113.821,291.715,122.731,279.727z"/>
<path style="fill:#CE9964;" d="M235.682,366.493c-2.178-2.931-4.01-6.103-5.459-9.455c-5.927-13.71-17.975-23.819-32.506-27.276
	c-3.552-0.845-6.995-2.098-10.259-3.734c-13.353-6.692-29.081-6.692-42.434,0c-3.264,1.636-6.707,2.889-10.259,3.734
	c-14.531,3.456-26.579,13.566-32.506,27.276c-1.449,3.351-3.281,6.524-5.459,9.455c-8.909,11.988-11.641,27.477-7.369,41.789
	c1.044,3.499,1.681,7.107,1.896,10.752c0.881,14.91,8.745,28.531,21.217,36.749l0,0c3.049,2.009,5.855,4.364,8.363,7.018
	c10.259,10.856,25.038,16.235,39.875,14.513l0,0c3.627-0.421,7.29-0.421,10.917,0l0,0c14.837,1.722,29.616-3.657,39.875-14.513
	c2.508-2.654,5.314-5.009,8.363-7.018l0,0c12.472-8.218,20.336-21.838,21.217-36.749l0,0c0.215-3.645,0.851-7.253,1.896-10.752
	C247.322,393.97,244.591,378.481,235.682,366.493z"/>
<ellipse style="fill:#8B6C52;" cx="135.259" cy="378.84" rx="13.08" ry="10.435"/>
<path style="fill:#DDA46C;" d="M276.318,366.493c2.178-2.931,4.01-6.103,5.459-9.455c5.927-13.71,17.975-23.819,32.506-27.276
	c3.552-0.845,6.995-2.098,10.259-3.734c13.353-6.692,29.081-6.692,42.434,0c3.264,1.636,6.707,2.889,10.259,3.734
	c14.531,3.456,26.579,13.566,32.506,27.276c1.449,3.351,3.281,6.524,5.459,9.455c8.909,11.988,11.641,27.477,7.369,41.789
	c-1.044,3.499-1.681,7.107-1.896,10.752c-0.881,14.91-8.745,28.531-21.217,36.749l0,0c-3.049,2.009-5.855,4.364-8.363,7.018
	c-10.259,10.856-25.038,16.235-39.875,14.513l0,0c-3.627-0.421-7.29-0.421-10.917,0l0,0c-14.837,1.722-29.616-3.657-39.875-14.513
	c-2.508-2.654-5.314-5.009-8.363-7.018l0,0c-12.472-8.218-20.336-21.838-21.217-36.749l0,0c-0.215-3.645-0.851-7.253-1.896-10.752
	C264.677,393.97,267.408,378.481,276.318,366.493z"/>
<path style="fill:#F6B778;" d="M325.441,366.493c-2.178-2.931-4.01-6.103-5.459-9.455c-5.927-13.71-17.975-23.819-32.506-27.276
	c-3.552-0.845-6.995-2.098-10.259-3.734c-13.353-6.692-29.081-6.692-42.434,0c-3.264,1.636-6.707,2.889-10.259,3.734
	c-14.531,3.456-26.579,13.566-32.506,27.276c-1.449,3.351-3.281,6.524-5.459,9.455c-8.909,11.988-11.641,27.477-7.369,41.789
	c1.044,3.499,1.68,7.107,1.896,10.752c0.881,14.91,8.745,28.531,21.217,36.749l0,0c3.049,2.009,5.855,4.364,8.363,7.018
	c10.259,10.856,25.038,16.235,39.875,14.513l0,0c3.627-0.421,7.29-0.421,10.917,0l0,0c14.837,1.722,29.616-3.657,39.875-14.513
	c2.508-2.654,5.314-5.009,8.363-7.018l0,0c12.472-8.218,20.336-21.838,21.217-36.749l0,0c0.215-3.645,0.851-7.253,1.896-10.752
	C337.082,393.97,334.35,378.481,325.441,366.493z"/>
<g>
	<ellipse style="fill:#654D3B;" cx="224.089" cy="391.57" rx="15.957" ry="12.734"/>
	<ellipse style="fill:#654D3B;" cx="271.96" cy="434.75" rx="15.957" ry="12.734"/>
	<ellipse style="fill:#654D3B;" cx="370.47" cy="422.02" rx="15.957" ry="12.734"/>
</g>
<g>
	<ellipse style="fill:#8B6C52;" cx="281.47" cy="372.01" rx="13.08" ry="10.435"/>
	<ellipse style="fill:#8B6C52;" cx="166.24" cy="277.11" rx="13.08" ry="10.435"/>
</g>
<ellipse style="fill:#654D3B;" cx="224.089" cy="292.67" rx="13.08" ry="10.435"/>
<ellipse style="fill:#8B6C52;" cx="319.829" cy="287.55" rx="13.08" ry="10.435"/>
<path d="M184.712,189.54v-14.26c0-4.142-3.358-7.5-7.5-7.5s-7.5,3.358-7.5,7.5v14.259c0,4.142,3.358,7.5,7.5,7.5
	S184.712,193.682,184.712,189.54z"/>
<path d="M342.288,189.54v-14.26c0-4.142-3.358-7.5-7.5-7.5s-7.5,3.358-7.5,7.5v14.259c0,4.142,3.358,7.5,7.5,7.5
	S342.288,193.682,342.288,189.54z"/>
<path d="M255.999,207.578c11.476,0,22.243-4.788,29.539-13.135c2.726-3.119,2.408-7.857-0.711-10.583s-7.856-2.408-10.583,0.711
	c-4.448,5.088-11.098,8.007-18.245,8.007c-7.148,0-13.798-2.918-18.246-8.007c-2.726-3.119-7.464-3.437-10.583-0.711
	s-3.437,7.464-0.711,10.583C233.757,202.79,244.523,207.578,255.999,207.578z"/>
<path d="M135.257,396.773c11.346,0,20.576-8.045,20.576-17.935c0-9.89-9.23-17.935-20.576-17.935s-20.576,8.045-20.576,17.935
	C114.679,388.728,123.91,396.773,135.257,396.773z M135.257,375.904c3.459,0,5.576,1.9,5.576,2.935s-2.117,2.935-5.576,2.935
	s-5.576-1.9-5.576-2.935S131.798,375.904,135.257,375.904z"/>
<path d="M224.085,371.339c-12.934,0-23.457,9.077-23.457,20.233c0,11.157,10.523,20.234,23.457,20.234s23.457-9.077,23.457-20.234
	C247.542,380.416,237.02,371.339,224.085,371.339z M224.085,396.806c-4.84,0-8.457-2.763-8.457-5.234
	c0-2.47,3.617-5.233,8.457-5.233s8.457,2.763,8.457,5.233C232.542,394.043,228.926,396.806,224.085,396.806z"/>
<path d="M271.957,414.517c-12.934,0-23.457,9.077-23.457,20.233c0,11.157,10.523,20.234,23.457,20.234s23.457-9.077,23.457-20.234
	C295.414,423.594,284.891,414.517,271.957,414.517z M271.957,439.984c-4.84,0-8.457-2.763-8.457-5.234
	c0-2.47,3.617-5.233,8.457-5.233s8.457,2.763,8.457,5.233C280.414,437.221,276.797,439.984,271.957,439.984z"/>
<path d="M370.469,401.783c-12.934,0-23.457,9.077-23.457,20.234s10.523,20.233,23.457,20.233s23.457-9.077,23.457-20.233
	C393.927,410.86,383.404,401.783,370.469,401.783z M370.469,427.25c-4.84,0-8.457-2.763-8.457-5.233
	c0-2.471,3.617-5.234,8.457-5.234s8.457,2.763,8.457,5.234C378.927,424.487,375.31,427.25,370.469,427.25z"/>
<path d="M281.474,389.941c11.346,0,20.576-8.045,20.576-17.935s-9.23-17.935-20.576-17.935s-20.576,8.045-20.576,17.935
	S270.128,389.941,281.474,389.941z M281.474,369.072c3.459,0,5.576,1.9,5.576,2.935s-2.117,2.935-5.576,2.935
	s-5.576-1.9-5.576-2.935S278.015,369.072,281.474,369.072z"/>
<path d="M166.242,295.047c11.346,0,20.576-8.045,20.576-17.935s-9.23-17.935-20.576-17.935s-20.576,8.045-20.576,17.935
	S154.895,295.047,166.242,295.047z M166.242,274.178c3.459,0,5.576,1.9,5.576,2.935s-2.117,2.935-5.576,2.935
	s-5.576-1.9-5.576-2.935S162.783,274.178,166.242,274.178z"/>
<path d="M224.085,310.604c11.346,0,20.576-8.045,20.576-17.935c0-9.89-9.23-17.935-20.576-17.935s-20.576,8.045-20.576,17.935
	C203.509,302.558,212.74,310.604,224.085,310.604z M224.085,289.734c3.459,0,5.576,1.9,5.576,2.935s-2.117,2.935-5.576,2.935
	s-5.576-1.9-5.576-2.935S220.626,289.734,224.085,289.734z"/>
<path d="M319.828,305.482c11.346,0,20.576-8.045,20.576-17.935c0-9.889-9.23-17.935-20.576-17.935s-20.576,8.045-20.576,17.935
	C299.252,297.437,308.482,305.482,319.828,305.482z M319.828,284.613c3.459,0,5.576,1.9,5.576,2.935s-2.117,2.935-5.576,2.935
	s-5.576-1.9-5.576-2.935S316.368,284.613,319.828,284.613z"/>
<path d="M407.016,110.465V92.786c0-12.065-8.076-22.274-19.104-25.521v-7.987c0-16.054-13.061-29.114-29.114-29.114h-71.406v-8.343
	C287.392,9.789,277.603,0,265.571,0h-19.142c-12.032,0-21.821,9.789-21.821,21.821v8.343h-71.406
	c-16.054,0-29.114,13.061-29.114,29.114v7.987c-11.028,3.247-19.104,13.455-19.104,25.521v17.708
	c-10.382,8.534-19.311,18.587-26.542,29.966c-2.222,3.496-1.188,8.131,2.307,10.353c3.496,2.22,8.131,1.189,10.353-2.307
	c6.517-10.255,14.58-19.305,23.993-26.935h281.811c26.022,21.125,41.484,53.472,41.484,87.048V451.06
	c0,25.332-20.609,45.94-45.94,45.94H119.551c-25.332,0-45.94-20.608-45.94-45.94V208.619c0-11.137,1.664-22.203,4.946-32.891
	c1.216-3.959-1.008-8.155-4.968-9.371c-3.959-1.218-8.155,1.008-9.371,4.968c-3.721,12.116-5.607,24.664-5.607,37.294V451.06
	c0,33.603,27.338,60.94,60.94,60.94h272.897c33.603,0,60.94-27.337,60.94-60.94V208.619
	C453.389,170.836,436.12,134.426,407.016,110.465z M239.607,21.821c0-3.761,3.06-6.821,6.821-6.821h19.142
	c3.761,0,6.821,3.06,6.821,6.821v8.343h-32.785L239.607,21.821L239.607,21.821z M139.087,59.278c0-7.783,6.332-14.114,14.114-14.114
	h205.596c7.783,0,14.114,6.332,14.114,14.114v6.904H139.087V59.278z M119.983,106.571V92.786c0-6.398,5.206-11.604,11.604-11.604
	h248.825c6.398,0,11.604,5.206,11.604,11.604v13.785L119.983,106.571L119.983,106.571z"/>
<path d="M95.375,354.062c-1.218,2.817-2.764,5.495-4.595,7.958c-10.269,13.817-13.459,31.913-8.536,48.408
	c0.878,2.941,1.415,5.986,1.596,9.049c1.015,17.184,10.202,33.098,24.577,42.569c2.563,1.688,4.931,3.676,7.039,5.906
	c10.384,10.988,24.963,17.173,39.944,17.172c5.186,0,10.239-0.965,15.435-0.36c14.394,1.668,28.975-2.575,40.277-11.459
	c11.3,8.891,25.848,13.13,40.293,11.459c5.198-0.605,10.248,0.36,15.435,0.36c12.331,0,24.386-4.2,34.058-11.811
	c11.301,8.878,25.876,13.118,40.266,11.45c3.047-0.354,6.14-0.354,9.188,0c2.083,0.242,4.168,0.36,6.247,0.36
	c14.979,0,29.561-6.185,39.944-17.172c2.108-2.23,4.476-4.218,7.039-5.906c14.375-9.471,23.563-25.385,24.577-42.569
	c0.181-3.063,0.718-6.108,1.596-9.049c4.924-16.495,1.733-34.591-8.536-48.408c-1.831-2.463-3.376-5.14-4.594-7.957
	c-3.313-7.663-8.341-14.375-14.54-19.723c0.049-0.544,0.112-1.092,0.144-1.629c0.181-3.064,0.718-6.108,1.596-9.049
	c4.924-16.495,1.733-34.592-8.536-48.408c-1.831-2.463-3.376-5.14-4.594-7.957c-6.831-15.801-20.908-27.612-37.655-31.596
	c-2.985-0.71-5.891-1.768-8.635-3.143c-15.388-7.712-33.765-7.713-49.154,0c-2.744,1.375-5.649,2.432-8.634,3.143
	c-12.207,2.903-23.009,10.004-30.613,19.769c-7.6-9.763-18.39-16.86-30.62-19.769c-2.986-0.71-5.891-1.768-8.634-3.143
	c-15.39-7.713-33.766-7.712-49.154,0c-2.744,1.375-5.65,2.433-8.635,3.143c-16.747,3.984-30.824,15.795-37.654,31.596
	c-1.218,2.817-2.764,5.495-4.595,7.958c-10.269,13.817-13.459,31.913-8.536,48.407c0.878,2.941,1.415,5.986,1.596,9.05
	c0.032,0.537,0.095,1.085,0.144,1.628C103.716,339.688,98.688,346.4,95.375,354.062z M262.323,469.863
	c-4.197-0.488-8.45-0.488-12.647,0c-12.234,1.421-24.579-2.997-33.157-11.813c-0.007-0.007-0.012-0.015-0.022-0.025
	c-3.063-3.165-6.386-6.08-10.068-8.505c-10.444-6.881-17.119-18.443-17.856-30.928c-0.249-4.216-0.988-8.407-2.196-12.455
	c-3.577-11.984-1.258-25.132,6.202-35.17c2.52-3.39,4.647-7.075,6.324-10.953c4.879-11.283,15.382-20.105,27.357-22.956
	c5.647-1.344,10.545-4.089,15.944-6.075c9.311-3.424,19.807-3.22,28.981,0.547c2.609,1.072,5.092,2.402,7.733,3.408
	c8.614,3.28,18.064,5.455,24.973,11.956c3.909,3.678,7.078,8.191,9.208,13.119c1.67,3.864,3.812,7.575,6.323,10.953
	c7.46,10.038,9.779,23.186,6.202,35.17c-1.208,4.048-1.947,8.238-2.196,12.455c-0.737,12.484-7.413,24.046-17.856,30.928
	c-3.527,2.324-6.787,5.059-9.648,8.088l-0.074,0.072c-0.117,0.114-0.234,0.229-0.348,0.347c-0.007,0.007-0.013,0.015-0.02,0.022
	C286.903,466.867,274.557,471.285,262.323,469.863z M409.178,370.967c7.46,10.038,9.779,23.186,6.202,35.17
	c-1.208,4.048-1.947,8.238-2.196,12.455c-0.737,12.484-7.413,24.046-17.856,30.928c-3.527,2.324-6.787,5.059-9.688,8.129
	c-8.59,9.09-21.136,13.658-33.559,12.214c-4.221-0.489-8.425-0.422-12.647,0c-9.571,1.111-19.261-1.371-27.133-6.751
	c0.501-0.365,1.004-0.726,1.521-1.067c14.375-9.471,23.563-25.385,24.577-42.569c0.181-3.063,0.718-6.108,1.596-9.049
	c1.846-6.186,2.552-12.596,2.171-18.922c-0.635-10.543-4.288-20.85-10.706-29.486c-1.831-2.463-3.376-5.14-4.594-7.957
	c-2.701-6.25-6.591-12.024-11.391-16.852c0.182-0.046,0.36-0.107,0.542-0.151c4.109-0.977,8.108-2.433,11.884-4.325
	c11.181-5.604,24.532-5.604,35.713,0c6.469,3.242,13.962,4.191,20.482,7.467c0.052,0.026,0.105,0.051,0.157,0.077
	c8.221,4.176,14.887,11.144,18.602,19.737C404.532,363.892,406.659,367.577,409.178,370.967z M290.088,250.293
	c4.109-0.978,8.107-2.433,11.883-4.325c11.182-5.604,24.532-5.604,35.713,0c3.776,1.892,7.774,3.347,11.883,4.325
	c12.167,2.895,22.395,11.476,27.358,22.955c1.676,3.877,3.803,7.563,6.323,10.953c7.46,10.038,9.779,23.186,6.202,35.17
	c-0.598,2.001-1.08,4.037-1.445,6.094c-0.915-0.396-1.845-0.756-2.782-1.101c-4.952-1.822-10.133-2.656-14.888-5.04
	c-15.39-7.713-33.766-7.713-49.155,0c-5.62,2.817-12.021,3.693-17.812,6.222c-0.769,0.336-2.422,1.118-2.489,1.151
	c-0.587-0.292-1.187-0.554-1.783-0.825c-2.22-1.007-4.489-1.881-6.824-2.581c-3.993-1.198-7.935-2.084-11.694-3.968
	c-0.985-0.494-1.982-0.953-2.99-1.384c-0.014-0.006-0.028-0.013-0.042-0.02c0.017-0.091,0.027-0.183,0.043-0.274
	c0.532-2.971,0.802-6.016,0.832-9.035c0.078-7.858-1.527-15.684-4.7-22.872c-2.442-5.532-6.297-10.04-9.142-15.31
	c-0.081-0.149-0.163-0.297-0.241-0.447C269.714,260.155,279.129,252.9,290.088,250.293z M123.994,325.464
	c-0.366-2.056-0.848-4.092-1.445-6.094c-3.577-11.984-1.259-25.131,6.201-35.169c2.519-3.39,4.647-7.075,6.324-10.953
	c4.962-11.479,15.189-20.061,27.358-22.956c4.108-0.978,8.106-2.433,11.883-4.325c11.181-5.603,24.532-5.604,35.713,0
	c3.776,1.892,7.774,3.348,11.883,4.325c12.065,2.87,22.215,11.335,27.224,22.669c0.004,0.01,0.007,0.02,0.011,0.03
	c0.049,0.109,0.1,0.217,0.16,0.343c3.201,6.661,8.151,12.358,11.004,19.162c2.825,6.738,3.761,14.247,2.674,21.472
	c-9.641-1.245-19.439,0.094-28.427,3.914c-1.059,0.449-2.107,0.927-3.135,1.441c-3.975,1.988-8.36,2.911-12.606,4.269
	c-2.631,0.842-5.221,1.874-7.695,3.104c-0.072-0.036-0.146-0.066-0.219-0.101c-3.61-1.769-7.502-3.191-11.45-4.13
	c-3.988-0.949-7.732-2.861-11.553-4.498c-6.886-2.953-14.272-4.429-21.658-4.429c-8.441,0-16.883,1.928-24.577,5.785
	c-3.887,1.948-8.014,2.824-12.127,4.109C127.657,324.013,125.8,324.684,123.994,325.464z M127.742,340.279
	c0.056-0.028,0.113-0.055,0.169-0.083c6.544-3.272,13.903-4.169,20.474-7.462c8.003-4.011,17.115-5.135,25.75-3.404
	c3.429,0.687,6.785,1.811,9.962,3.403c3.776,1.893,7.775,3.349,11.884,4.326c0.183,0.043,0.361,0.105,0.543,0.151
	c-3.255,3.274-6.067,6.957-8.404,10.97c-2.658,4.564-4.409,9.573-7.581,13.84c-10.269,13.816-13.459,31.913-8.536,48.408
	c0.878,2.941,1.415,5.986,1.596,9.049c1.015,17.184,10.202,33.098,24.577,42.569c0.517,0.341,1.021,0.702,1.521,1.067
	c-7.87,5.379-17.563,7.863-27.133,6.751c-4.196-0.486-8.45-0.486-12.647,0c-12.422,1.443-24.969-3.124-33.559-12.214
	c-2.901-3.07-6.161-5.805-9.688-8.129c-10.444-6.881-17.119-18.443-17.856-30.928c-0.249-4.216-0.988-8.407-2.196-12.455
	c-3.577-11.984-1.258-25.132,6.202-35.17c2.519-3.39,4.647-7.075,6.324-10.952C112.858,351.423,119.523,344.455,127.742,340.279z"/>
<g>
</g>
<g>
</g>
<g>
</g>
<g>
</g>
<g>
</g>
<g>
</g>
<g>
</g>
<g>
</g>
<g>
</g>
<g>
</g>
<g>
</g>
<g>
</g>
<g>
</g>
<g>
</g>
<g>
</g>
</svg>
